<svg width="445" height="80" viewBox="0 0 445 80" fill="none" xmlns="http://www.w3.org/2000/svg">
<path d="M99.7678 63.8217C86.7258 63.8217 79.9997 55.9473 79.9997 43.3974V22.727C79.9997 9.84909 86.9718 2.13869 100.014 2.13869C113.22 2.13869 119.864 10.2592 119.864 22.563V43.2334C119.864 55.3731 113.302 63.8217 99.7678 63.8217ZM90.0068 43.2334C90.0068 50.2875 92.9597 54.5529 99.9318 54.5529C106.822 54.5529 109.857 50.3696 109.857 43.2334V22.727C109.857 15.6729 106.904 11.4075 99.9318 11.4075C92.9597 11.4075 90.0068 15.6729 90.0068 22.727V43.2334Z" fill="#00374E"/>
<path d="M130.417 79.6526C129.843 79.6526 129.433 79.2425 129.433 78.6683V18.7078C129.433 18.1336 129.843 17.7235 130.417 17.7235H137.881C138.456 17.7235 138.866 18.1336 138.866 18.7078V23.3012C140.834 19.282 144.854 16.9032 150.021 16.9032C158.306 16.9032 163.063 22.9731 163.063 33.3903V47.5807C163.063 57.9159 157.896 63.8217 149.775 63.8217C144.854 63.8217 141.244 61.6891 139.194 58.08V78.6683C139.194 79.2425 138.784 79.6526 138.209 79.6526H130.417ZM139.194 46.9245C139.194 52.5843 142.475 55.2091 146.576 55.2091C151.169 55.2091 153.302 51.846 153.302 47.2526V33.6364C153.302 28.961 151.169 25.5159 146.658 25.5159C142.311 25.5159 139.194 28.4688 139.194 33.9645V46.9245Z" fill="#00374E"/>
<path d="M187.554 63.8217C177.055 63.8217 170.739 57.6698 170.739 47.2526V33.4724C170.739 23.1372 176.809 16.9032 186.98 16.9032C197.233 16.9032 203.303 23.1372 203.303 33.4724V42.4131C203.303 42.9873 202.893 43.3974 202.319 43.3974H180.09V47.2526C180.09 52.8303 182.961 55.7833 187.636 55.7833C191.245 55.7833 193.46 54.0607 194.608 50.6157C194.772 49.9595 195.182 49.7134 195.757 49.8774L202.319 51.4359C202.893 51.6 203.221 51.9281 203.139 52.5022C201.334 59.4744 196.413 63.8217 187.554 63.8217ZM180.09 36.9174H194.198V33.0622C194.198 27.8126 191.737 24.8597 187.144 24.8597C182.633 24.8597 180.09 27.8126 180.09 33.0622V36.9174Z" fill="#00374E"/>
<path d="M212.843 63.0015C212.269 63.0015 211.859 62.5913 211.859 62.0172V18.7078C211.859 18.1336 212.269 17.7235 212.843 17.7235H220.307C220.881 17.7235 221.292 18.1336 221.292 18.7078V23.2192C223.834 19.0359 227.607 16.9032 232.283 16.9032C239.665 16.9032 244.177 22.1529 244.177 32.4881V62.0172C244.177 62.5913 243.766 63.0015 243.192 63.0015H235.4C234.826 63.0015 234.416 62.5913 234.416 62.0172V32.4881C234.416 27.8946 232.283 25.5159 229.002 25.5159C225.803 25.5159 223.014 27.7306 221.62 31.5858V62.0172C221.62 62.5913 221.209 63.0015 220.635 63.0015H212.843Z" fill="#00374E"/>
<path d="M255.401 63.0015C254.826 63.0015 254.416 62.5913 254.416 62.0172V3.94325C254.416 3.36907 254.826 2.95894 255.401 2.95894H272.216C285.586 2.95894 292.23 11.0795 292.23 23.3832V42.4951C292.23 54.6349 285.668 63.0015 272.052 63.0015H255.401ZM264.423 53.7326H272.216C279.188 53.7326 282.223 49.5493 282.223 42.4951V23.4653C282.223 16.4931 279.27 12.2278 272.216 12.2278H264.423V53.7326Z" fill="#00374E"/>
<path d="M317.399 63.8217C306.9 63.8217 300.666 57.6698 300.666 47.2526V33.6364C300.666 23.2192 306.9 16.9032 317.399 16.9032C327.98 16.9032 334.132 23.2192 334.132 33.6364V47.2526C334.132 57.6698 327.98 63.8217 317.399 63.8217ZM310.427 47.2526C310.427 52.5022 312.888 55.2091 317.399 55.2091C321.992 55.2091 324.453 52.5022 324.453 47.2526V33.6364C324.453 28.3048 321.91 25.5159 317.399 25.5159C312.888 25.5159 310.427 28.3048 310.427 33.6364V47.2526Z" fill="#00374E"/>
<path d="M344.051 63.0015C343.477 63.0015 343.067 62.5913 343.067 62.0172V1.48248C343.067 0.908308 343.477 0.498182 344.051 0.498182H351.844C352.418 0.498182 352.828 0.908308 352.828 1.48248V62.0172C352.828 62.5913 352.418 63.0015 351.844 63.0015H344.051Z" fill="#00374E"/>
<path d="M363.837 63.0015C363.263 63.0015 362.852 62.5913 362.852 62.0172V1.48248C362.852 0.908308 363.263 0.498182 363.837 0.498182H371.629C372.203 0.498182 372.613 0.908308 372.613 1.48248V62.0172C372.613 62.5913 372.203 63.0015 371.629 63.0015H363.837Z" fill="#00374E"/>
<path d="M404.703 63.0015C404.129 63.0015 403.718 62.5913 403.718 62.0172V57.0957C401.504 61.1969 397.566 63.8217 392.563 63.8217C385.509 63.8217 380.669 58.9002 380.669 50.3696C380.669 42.3311 385.263 36.5073 397.402 36.5073H403.308V31.5038C403.308 26.9924 401.34 24.8597 397.402 24.8597C393.793 24.8597 392.071 26.6643 390.922 29.9453C390.758 30.5194 390.348 30.7655 389.774 30.6015L383.048 28.8789C382.474 28.7149 382.228 28.3048 382.392 27.6486C384.032 21.4146 388.708 16.9032 397.895 16.9032C407.409 16.9032 412.741 21.6607 412.741 31.0116V62.0172C412.741 62.5913 412.331 63.0015 411.757 63.0015H404.703ZM389.938 49.7134C389.938 53.7326 391.907 56.0293 395.516 56.0293C399.125 56.0293 401.914 53.7326 403.308 49.7954V42.7412H397.895C392.563 42.7412 389.938 44.9559 389.938 49.7134Z" fill="#00374E"/>
<path d="M423.513 63.0015C422.939 63.0015 422.529 62.5913 422.529 62.0172V18.7898C422.529 18.2156 422.939 17.8055 423.513 17.8055H430.896C431.47 17.8055 431.88 18.2156 431.88 18.7898V24.6136C434.013 20.2663 437.54 17.2313 443.856 17.3134C444.512 17.3134 444.84 17.7235 444.84 18.2977V25.5159C444.84 26.1721 444.512 26.5002 443.774 26.4182C437.704 26.1721 434.177 28.4688 432.29 32.7341V62.0172C432.29 62.5913 431.88 63.0015 431.306 63.0015H423.513Z" fill="#00374E"/>
<path d="M29.9998 63.3746C46.5683 63.3746 59.9998 49.9431 59.9998 33.3746C59.9998 16.806 46.5683 3.37459 29.9998 3.37459L29.9998 63.3746Z" fill="#43C7FF"/>
<path d="M29.9998 3.37454C13.4312 3.37454 -0.000209552 16.806 -0.000211 33.3745C-0.000212449 49.9431 13.4312 63.3746 29.9998 63.3746L29.9998 3.37454Z" fill="#0079AD"/>
<ellipse cx="29.9998" cy="33.3745" rx="20" ry="20" fill="#002B40"/>
<path d="M29.9998 43.3744C35.5226 43.3744 39.9997 38.8973 39.9997 33.3745C39.9997 27.8517 35.5226 23.3745 29.9998 23.3745V43.3744Z" fill="#0079AD"/>
<path d="M29.9998 23.3748C24.477 23.3748 19.9999 27.8519 19.9999 33.3747C19.9999 38.8974 24.477 43.3745 29.9998 43.3745L29.9998 23.3748Z" fill="#43C7FF"/>
</svg>
