<svg width="445" height="80" viewBox="0 0 200 41" fill="none" xmlns="http://www.w3.org/2000/svg">
    <path d="M56.82 31.883a6.476 6.476 0 0 1-2.675-2.598 7.821 7.821 0 0 1-.937-3.89v-9.583a7.75 7.75 0 0 1 .937-3.854A6.445 6.445 0 0 1 56.82 9.36a8.354 8.354 0 0 1 3.986-.92 8.461 8.461 0 0 1 4.052.92 6.606 6.606 0 0 1 2.69 2.598 7.656 7.656 0 0 1 .956 3.854v9.608a7.72 7.72 0 0 1-.957 3.89 6.637 6.637 0 0 1-2.69 2.598 8.462 8.462 0 0 1-4.05.92 8.355 8.355 0 0 1-3.986-.946Zm6.675-3.548a3.872 3.872 0 0 0 1.012-2.77v-9.854a3.921 3.921 0 0 0-1.012-2.803 3.511 3.511 0 0 0-2.69-1.07 3.427 3.427 0 0 0-2.633 1.07 3.952 3.952 0 0 0-1.013 2.803v9.855a3.907 3.907 0 0 0 1.013 2.769 3.405 3.405 0 0 0 2.633 1.07 3.535 3.535 0 0 0 2.69-1.07Zm21.7-4.467a20.946 20.946 0 0 1-.308 3.704c-.703 3.464-2.56 5.196-5.572 5.196-1.6 0-2.795-.503-3.595-1.508-.046-.07-.091-.095-.137-.085-.046.01-.066.05-.066.115v7.242a.417.417 0 0 1-.415.407h-3.15a.417.417 0 0 1-.41-.407v-22.99a.41.41 0 0 1 .41-.408h3.15a.417.417 0 0 1 .415.407v.885a.134.134 0 0 0 .066.136c.046.025.091 0 .137-.07a4.48 4.48 0 0 1 1.669-1.26 4.515 4.515 0 0 1 2.063-.37 4.744 4.744 0 0 1 3.444 1.292 7.68 7.68 0 0 1 1.9 3.875c.268 1.262.402 2.549.4 3.839Zm-4.006-.035a12.965 12.965 0 0 0-.339-3.397c-.415-1.473-1.256-2.211-2.532-2.211s-2.026.728-2.396 2.176a13.126 13.126 0 0 0-.344 3.432 12.001 12.001 0 0 0 .38 3.462c.364 1.384 1.14 2.076 2.324 2.076 1.19 0 2.026-.669 2.502-2.01a12.32 12.32 0 0 0 .405-3.528Zm20.101-.342-.035 1.463a.366.366 0 0 1-.104.304.368.368 0 0 1-.307.103h-9.176a.155.155 0 0 0-.13.042.15.15 0 0 0-.043.129c.046.633.091 1.1.137 1.392.083.707.433 1.357.98 1.818.547.46 1.25.698 1.968.664.612 0 1.211-.175 1.727-.502.477-.332.85-.79 1.078-1.322a.398.398 0 0 1 .507-.277l2.811.578c.273.09.364.258.273.503a6.08 6.08 0 0 1-2.345 3.241 6.978 6.978 0 0 1-4.051 1.14c-1.9 0-3.414-.451-4.558-1.356a6.336 6.336 0 0 1-2.224-3.774 14.388 14.388 0 0 1-.223-1.935 55.525 55.525 0 0 1-.05-2.718c-.021-.898.036-1.796.172-2.684a6.016 6.016 0 0 1 2.122-3.96 7.714 7.714 0 0 1 4.696-1.475 7.71 7.71 0 0 1 4.633 1.661 6.328 6.328 0 0 1 2.026 4.382c.081.75.116 1.608.116 2.583Zm-8.782-4.567a2.911 2.911 0 0 0-.911 1.783 13.045 13.045 0 0 0-.102 1.699.15.15 0 0 0 .043.128.152.152 0 0 0 .13.043h5.444a.158.158 0 0 0 .164-.103.156.156 0 0 0 .008-.068 25.238 25.238 0 0 0-.137-1.663 2.796 2.796 0 0 0-.891-1.804 2.707 2.707 0 0 0-1.884-.679 2.666 2.666 0 0 0-1.864.663Zm23.257-2.499c.935 1.042 1.403 2.481 1.403 4.317V32.09a.393.393 0 0 1-.251.377.394.394 0 0 1-.159.03h-3.151a.415.415 0 0 1-.41-.407V21.285a3.281 3.281 0 0 0-.699-2.211 2.378 2.378 0 0 0-1.904-.814 2.48 2.48 0 0 0-1.965.834 3.229 3.229 0 0 0-.739 2.226v10.769a.41.41 0 0 1-.251.377.399.399 0 0 1-.16.03h-3.15a.381.381 0 0 1-.288-.12.392.392 0 0 1-.122-.287V15.54a.38.38 0 0 1 .122-.286.38.38 0 0 1 .288-.12h3.15a.4.4 0 0 1 .411.406v.884a.127.127 0 0 0 .014.08.138.138 0 0 0 .056.056c.046.025.092 0 .137-.07a4.637 4.637 0 0 1 1.69-1.25 4.673 4.673 0 0 1 2.073-.378 4.977 4.977 0 0 1 3.905 1.563Zm10.92 15.948a.392.392 0 0 1-.122-.287V9.116a.415.415 0 0 1 .41-.407h7.091c2.214 0 3.989.611 5.322 1.834a6.331 6.331 0 0 1 1.552 2.228c.35.845.512 1.754.474 2.667v10.326a6.284 6.284 0 0 1-.474 2.667 6.332 6.332 0 0 1-1.552 2.228c-1.35 1.223-3.124 1.834-5.322 1.834h-7.091a.4.4 0 0 1-.288-.12Zm4.021-3.277 3.393-.035a3.013 3.013 0 0 0 2.36-1.005c.631-.774.97-1.743.957-2.739V15.87a3.998 3.998 0 0 0-.906-2.754 3.039 3.039 0 0 0-2.411-1.005h-3.393a.151.151 0 0 0-.161.103.13.13 0 0 0-.006.068v16.653c0 .106.055.161.167.161Zm15.537 2.194a6.187 6.187 0 0 1-2.157-3.995 21.146 21.146 0 0 1-.274-3.518 21.643 21.643 0 0 1 .274-3.568 5.968 5.968 0 0 1 2.193-3.924 7.127 7.127 0 0 1 4.558-1.442c1.62-.06 3.21.45 4.487 1.442a6.019 6.019 0 0 1 2.158 3.89c.352 2.342.364 4.723.035 7.07a6.213 6.213 0 0 1-2.157 4.02 7.756 7.756 0 0 1-4.559 1.479 7.756 7.756 0 0 1-4.558-1.48v.026Zm6.458-2.668c.528-.533.86-1.227.942-1.97.091-1.176.136-2.131.136-2.855 0-.723-.045-1.708-.136-2.89a3.166 3.166 0 0 0-.942-1.934 2.907 2.907 0 0 0-3.819 0 3.203 3.203 0 0 0-.927 1.935 26.06 26.06 0 0 0-.137 2.89c-.01.953.036 1.906.137 2.854.081.74.407 1.433.927 1.97a2.597 2.597 0 0 0 1.919.748 2.65 2.65 0 0 0 1.9-.748Zm7.845 3.751a.392.392 0 0 1-.122-.287V9.116a.412.412 0 0 1 .411-.407h3.15a.412.412 0 0 1 .415.407v22.97a.412.412 0 0 1-.415.407h-3.15a.396.396 0 0 1-.289-.12Zm7.044 0a.39.39 0 0 1-.121-.287V9.116a.408.408 0 0 1 .123-.288.418.418 0 0 1 .292-.119h3.15a.411.411 0 0 1 .41.407v22.97a.411.411 0 0 1-.41.407h-3.15a.4.4 0 0 1-.294-.12Zm16.759-16.78a5.67 5.67 0 0 1 2.35 2.01c.564.882.854 1.91.836 2.954v11.518a.41.41 0 0 1-.251.377.399.399 0 0 1-.16.03h-3.15a.381.381 0 0 1-.288-.12.392.392 0 0 1-.122-.287v-.85a.142.142 0 0 0-.014-.078.14.14 0 0 0-.057-.057.107.107 0 0 0-.137.03c-.959 1.09-2.339 1.634-4.142 1.634a6.11 6.11 0 0 1-3.834-1.206c-1.05-.804-1.575-2.113-1.575-3.925 0-1.906.611-3.322 1.833-4.246 1.222-.925 2.91-1.389 5.065-1.392h2.704a.15.15 0 0 0 .129-.043.144.144 0 0 0 .037-.059.136.136 0 0 0 .006-.07v-.848a2.73 2.73 0 0 0-.704-2.01 2.546 2.546 0 0 0-1.934-.729 2.709 2.709 0 0 0-1.626.457 2.01 2.01 0 0 0-.805 1.241.45.45 0 0 1-.476.372l-3.323-.2a.396.396 0 0 1-.293-.121.247.247 0 0 1-.082-.252 4.803 4.803 0 0 1 .623-1.98 4.846 4.846 0 0 1 1.403-1.537 7.406 7.406 0 0 1 4.558-1.357 7.798 7.798 0 0 1 3.429.744Zm-1.778 13.216a2.423 2.423 0 0 0 1.013-2.01v-1.78c0-.11-.055-.165-.172-.165h-2.294a3.951 3.951 0 0 0-2.38.643 2.192 2.192 0 0 0-.872 1.87 2.037 2.037 0 0 0 .669 1.648 2.6 2.6 0 0 0 1.727.558 3.694 3.694 0 0 0 2.289-.764h.02Zm17.205-13.469a.419.419 0 0 1 .202.502l-.582 3.091c0 .271-.183.352-.476.241a2.849 2.849 0 0 0-1.013-.17 5.462 5.462 0 0 0-.719.065 2.72 2.72 0 0 0-1.935 1.055 3.637 3.637 0 0 0-.775 2.382v9.583a.415.415 0 0 1-.41.407h-3.135a.418.418 0 0 1-.292-.119.408.408 0 0 1-.123-.288V15.54a.408.408 0 0 1 .123-.288.418.418 0 0 1 .292-.119h3.15a.411.411 0 0 1 .41.407v1.462c0 .09 0 .141.051.151.051.01.071 0 .116-.085.826-1.427 1.976-2.141 3.459-2.141a3.376 3.376 0 0 1 1.657.412Z"
          fill="#1C293A"/>
    <path d="M5.263 20.9c0 3.946 1.58 7.73 4.392 10.52a15.055 15.055 0 0 0 10.603 4.358V41a20.339 20.339 0 0 1-14.325-5.887A20.022 20.022 0 0 1 0 20.9 20.022 20.022 0 0 1 5.933 6.685 20.339 20.339 0 0 1 20.258.8v5.22a15.055 15.055 0 0 0-10.603 4.358 14.82 14.82 0 0 0-4.392 10.52Z"
          fill="#6396FF"/>
    <path d="M35.254 20.9a14.82 14.82 0 0 0-4.392-10.521A15.055 15.055 0 0 0 20.259 6.02V.799a20.34 20.34 0 0 1 14.324 5.887 20.022 20.022 0 0 1 5.934 14.213 20.022 20.022 0 0 1-5.934 14.214A20.339 20.339 0 0 1 20.26 41v-5.222c3.976 0 7.79-1.567 10.603-4.358a14.82 14.82 0 0 0 4.392-10.52ZM20.258 32.458c-1.53 0-3.045-.3-4.458-.88a11.654 11.654 0 0 1-3.779-2.506 11.552 11.552 0 0 1-2.525-3.75 11.48 11.48 0 0 1 0-8.845 11.552 11.552 0 0 1 2.525-3.75 11.654 11.654 0 0 1 3.78-2.505 11.716 11.716 0 0 1 4.457-.88v23.116Z"
          fill="#1A74EC"/>
    <path d="M20.258 9.341c1.53 0 3.044.3 4.457.88a11.656 11.656 0 0 1 3.78 2.505 11.554 11.554 0 0 1 2.524 3.75 11.48 11.48 0 0 1 0 8.846 11.553 11.553 0 0 1-2.524 3.75 11.654 11.654 0 0 1-3.78 2.505 11.72 11.72 0 0 1-4.457.88V9.341Z"
          fill="#6396FF"/>
</svg>